# Blender v2.79 (sub 0) OBJ File: 'diamond.blend'
# www.blender.org
mtllib diamond.mtl
o Sphere
v 0.000000 1.000000 0.000000
v 0.000000 0.999999 0.000000
v -1.000000 -0.000000 0.000000
v -1.000000 -0.000000 0.000000
v 0.000000 -0.000000 -1.154700
v 0.000000 -1.000000 0.000000
v 0.000000 -1.000000 0.000000
v 1.000000 0.000000 0.000000
v 1.000000 0.000000 0.000000
v 0.000000 -0.000000 1.154700
vn -0.6030 0.6030 0.5222
vn -0.3214 0.3214 0.8907
vn -0.6030 0.6030 -0.5222
vn -0.6030 -0.6030 0.5222
vn -0.3214 -0.3214 0.8907
vn -0.6030 -0.6030 -0.5222
vn 0.6030 -0.6030 0.5222
vn -0.5051 0.5051 0.6999
vn 0.6030 -0.6030 -0.5222
vn 0.6030 0.6030 0.5222
vn -0.5051 -0.5051 0.6999
vn 0.6030 0.6030 -0.5222
vn 0.5051 -0.5051 0.6999
vn 0.5051 0.5051 0.6999
vn 0.3214 -0.3214 0.8907
vn 0.3214 0.3214 0.8907
usemtl None
s off
f 10//1 2//1 4//1
f 1//2 4//2 2//2
f 1//3 5//3 3//3
f 10//4 4//4 7//4
f 4//5 6//5 7//5
f 3//6 5//6 6//6
f 10//7 7//7 9//7
f 7//8 8//8 9//8
f 6//9 5//9 8//9
f 10//10 9//10 2//10
f 8//11 2//11 9//11
f 8//12 5//12 1//12
f 1//13 3//13 4//13
f 4//14 3//14 6//14
f 7//15 6//15 8//15
f 8//16 1//16 2//16
