# Blender v2.79 (sub 0) OBJ File: 'smallship.blend'
# www.blender.org
mtllib smallship.mtl
o Cube
v -0.047319 0.473194 0.047319
v -0.500000 -0.473194 0.148148
v 0.500000 -0.473194 0.148148
v 0.047319 0.473194 0.047319
v -0.047320 0.473194 0.000000
v -0.331208 -0.473194 -0.148148
v 0.331209 -0.473194 -0.148148
v 0.047319 0.473194 -0.000000
v -0.234925 -0.426031 0.047994
v -0.234925 -0.425736 -0.045686
v -0.267249 0.141898 0.015946
v -0.267249 0.142046 -0.021526
v -0.332908 -0.426031 0.047994
v -0.332908 -0.425736 -0.045686
v -0.300583 0.141898 0.015946
v -0.300583 0.142046 -0.021526
v -0.205758 0.141958 0.082609
v 0.205758 0.141958 0.082609
v -0.146681 0.141958 -0.082609
v 0.146681 0.141958 -0.082609
v -0.000000 0.392340 -0.055480
v -0.000000 0.405596 -0.052261
v -0.000000 0.417812 -0.047034
v -0.000000 0.428519 -0.039999
v -0.000000 0.437307 -0.031427
v -0.000000 0.443836 -0.021647
v -0.000000 0.447857 -0.011036
v -0.000000 0.449215 0.000000
v -0.000000 0.447857 0.011036
v -0.000000 0.443836 0.021647
v -0.000000 0.437307 0.031427
v -0.000000 0.428519 0.039999
v -0.000000 0.417812 0.047034
v -0.000000 0.405596 0.052261
v -0.000000 0.392340 0.055480
v -0.011938 0.385448 -0.055480
v -0.023418 0.392075 -0.052261
v -0.033997 0.398183 -0.047034
v -0.043270 0.403537 -0.039999
v -0.050881 0.407931 -0.031427
v -0.056535 0.411196 -0.021647
v -0.060018 0.413206 -0.011036
v -0.061194 0.413885 0.000000
v -0.060018 0.413206 0.011036
v -0.056535 0.411196 0.021647
v -0.050881 0.407931 0.031427
v -0.043270 0.403537 0.039999
v -0.033997 0.398183 0.047034
v -0.023418 0.392075 0.052261
v -0.011938 0.385448 0.055480
v -0.011938 0.371663 -0.055480
v -0.023418 0.365035 -0.052261
v -0.033997 0.358927 -0.047034
v -0.043270 0.353573 -0.039999
v -0.050881 0.349179 -0.031427
v -0.056535 0.345914 -0.021647
v -0.060018 0.343904 -0.011036
v -0.061194 0.343225 0.000000
v -0.060018 0.343904 0.011036
v -0.056535 0.345914 0.021647
v -0.050881 0.349179 0.031427
v -0.043270 0.353573 0.039999
v -0.033997 0.358927 0.047034
v -0.023418 0.365035 0.052261
v -0.011938 0.371663 0.055480
v -0.000000 0.364770 -0.055480
v -0.000000 0.351515 -0.052261
v -0.000000 0.339298 -0.047034
v -0.000000 0.328591 -0.039999
v -0.000000 0.319803 -0.031427
v -0.000000 0.313274 -0.021647
v -0.000000 0.309253 -0.011036
v -0.000000 0.307895 0.000000
v -0.000000 0.309253 0.011036
v -0.000000 0.313274 0.021647
v -0.000000 0.319803 0.031427
v -0.000000 0.328591 0.039999
v -0.000000 0.339298 0.047034
v -0.000000 0.351515 0.052261
v -0.000000 0.364770 0.055480
v -0.000000 0.378555 -0.056294
v 0.011938 0.371663 -0.055480
v 0.023418 0.365035 -0.052261
v 0.033997 0.358927 -0.047034
v 0.043270 0.353573 -0.039999
v 0.050880 0.349179 -0.031427
v 0.056535 0.345914 -0.021647
v 0.060017 0.343904 -0.011036
v 0.061193 0.343225 0.000000
v 0.060017 0.343904 0.011036
v 0.056535 0.345914 0.021647
v 0.050880 0.349179 0.031427
v 0.043270 0.353573 0.039999
v 0.033997 0.358927 0.047034
v 0.023418 0.365035 0.052261
v 0.011938 0.371663 0.055480
v -0.000000 0.378555 0.056294
v 0.011938 0.385448 -0.055480
v 0.023418 0.392075 -0.052261
v 0.033997 0.398183 -0.047034
v 0.043270 0.403537 -0.039999
v 0.050880 0.407931 -0.031427
v 0.056535 0.411196 -0.021647
v 0.060017 0.413206 -0.011036
v 0.061193 0.413885 0.000000
v 0.060017 0.413206 0.011036
v 0.056535 0.411196 0.021647
v 0.050880 0.407931 0.031427
v 0.043270 0.403537 0.039999
v 0.033997 0.398183 0.047034
v 0.023418 0.392075 0.052261
v 0.011938 0.385448 0.055480
v -0.234925 -0.000139 0.045036
v -0.234925 0.000156 -0.048644
v -0.332908 -0.000139 0.045036
v -0.332908 0.000156 -0.048644
vn -0.0000 0.1059 0.9944
vn -0.0000 0.1059 -0.9944
vn -0.8168 0.3411 -0.4653
vn 0.0000 -1.0000 0.0000
vn 0.9021 0.4315 -0.0000
vn -0.0000 1.0000 -0.0000
vn 0.9750 0.2220 0.0007
vn 0.0000 1.0000 0.0039
vn -1.0000 0.0000 0.0000
vn 0.0000 -1.0000 -0.0031
vn 0.0000 0.0069 1.0000
vn 0.0000 -0.0069 -1.0000
vn 0.8168 0.3411 -0.4653
vn -0.9021 0.4315 -0.0000
vn -0.0000 0.2420 -0.9703
vn -0.0340 0.0589 -0.9977
vn -0.0340 0.0589 0.9977
vn -0.4972 0.8612 0.1059
vn -0.1350 0.2338 -0.9629
vn -0.4751 0.8229 0.3118
vn -0.2215 0.3836 -0.8965
vn -0.4328 0.7497 0.5006
vn -0.3022 0.5234 -0.7967
vn -0.3739 0.6476 0.6639
vn -0.3739 0.6476 -0.6639
vn -0.3022 0.5234 0.7967
vn -0.4328 0.7497 -0.5006
vn -0.2215 0.3836 0.8965
vn -0.4751 0.8229 -0.3118
vn -0.1350 0.2338 0.9629
vn -0.4972 0.8612 -0.1059
vn -0.9501 0.0000 -0.3118
vn -0.2700 0.0000 0.9629
vn -0.9944 0.0000 -0.1059
vn -0.0680 0.0000 -0.9977
vn -0.0680 0.0000 0.9977
vn -0.9944 0.0000 0.1059
vn -0.2700 0.0000 -0.9629
vn -0.9501 0.0000 0.3118
vn -0.4430 0.0000 -0.8965
vn -0.8657 0.0000 0.5006
vn -0.6044 0.0000 -0.7967
vn -0.7478 0.0000 0.6639
vn -0.7478 0.0000 -0.6639
vn -0.6044 0.0000 0.7967
vn -0.8657 0.0000 -0.5006
vn -0.4430 0.0000 0.8965
vn -0.4328 -0.7497 0.5006
vn -0.3022 -0.5234 -0.7967
vn -0.3739 -0.6476 0.6639
vn -0.3739 -0.6476 -0.6639
vn -0.3022 -0.5234 0.7967
vn -0.4328 -0.7497 -0.5006
vn -0.2215 -0.3836 0.8965
vn -0.4751 -0.8229 -0.3118
vn -0.1350 -0.2338 0.9629
vn -0.4972 -0.8612 -0.1059
vn -0.0340 -0.0589 -0.9977
vn -0.0340 -0.0589 0.9977
vn -0.4972 -0.8612 0.1059
vn -0.1350 -0.2338 -0.9629
vn -0.4751 -0.8229 0.3118
vn -0.2215 -0.3836 -0.8965
vn 0.1350 -0.2338 0.9629
vn 0.4972 -0.8612 -0.1059
vn 0.0340 -0.0589 -0.9977
vn 0.0340 -0.0589 0.9977
vn 0.4972 -0.8612 0.1060
vn 0.1350 -0.2338 -0.9629
vn 0.4751 -0.8229 0.3118
vn 0.2215 -0.3836 -0.8965
vn 0.4328 -0.7497 0.5006
vn 0.3022 -0.5234 -0.7967
vn 0.3739 -0.6476 0.6639
vn 0.3739 -0.6476 -0.6639
vn 0.3022 -0.5234 0.7967
vn 0.4328 -0.7497 -0.5006
vn 0.2215 -0.3836 0.8965
vn 0.4751 -0.8229 -0.3118
vn 0.7478 0.0000 0.6639
vn 0.7478 0.0000 -0.6639
vn 0.6044 0.0000 0.7967
vn 0.8657 0.0000 -0.5006
vn 0.4430 0.0000 0.8965
vn 0.9501 0.0000 -0.3118
vn 0.2700 0.0000 0.9629
vn 0.9944 0.0000 -0.1059
vn 0.0680 0.0000 -0.9977
vn 0.0680 0.0000 0.9977
vn 0.9944 0.0000 0.1059
vn 0.2700 0.0000 -0.9629
vn 0.9501 0.0000 0.3118
vn 0.4430 0.0000 -0.8965
vn 0.8657 0.0000 0.5006
vn 0.6044 0.0000 -0.7967
vn 0.0340 0.0589 -0.9977
vn 0.0340 0.0589 0.9977
vn 0.4972 0.8612 0.1060
vn 0.1350 0.2338 -0.9629
vn 0.4751 0.8229 0.3118
vn 0.2215 0.3836 -0.8965
vn 0.4328 0.7497 0.5006
vn 0.3022 0.5234 -0.7967
vn 0.3739 0.6476 0.6639
vn 0.3739 0.6476 -0.6639
vn 0.3022 0.5234 0.7967
vn 0.4328 0.7497 -0.5006
vn 0.2215 0.3836 0.8965
vn 0.4751 0.8229 -0.3118
vn 0.1350 0.2338 0.9629
vn 0.4972 0.8612 -0.1059
vn 0.0000 0.1877 -0.9822
vn 0.0000 0.2006 0.9797
vn -0.9750 0.2220 0.0007
vn 1.0000 -0.0000 0.0000
vn -0.8973 0.3033 -0.3208
vn 0.8841 0.3441 -0.3161
vn 0.9751 0.2220 0.0009
vn 0.8973 0.3033 -0.3208
vn -0.8841 0.3441 -0.3161
vn -0.4972 -0.8612 -0.1060
vn 0.4972 -0.8612 0.1059
vn 0.4972 0.8612 0.1059
vn 0.4972 0.8612 -0.1060
vn -0.9751 0.2220 0.0009
usemtl Material
s off
f 2//1 18//1 17//1
f 19//2 7//2 6//2
f 17//3 6//3 2//3
f 6//4 3//4 2//4
f 18//5 8//5 4//5
f 1//6 8//6 5//6
f 114//7 11//7 113//7
f 12//8 15//8 11//8
f 115//9 14//9 13//9
f 14//10 9//10 13//10
f 113//11 13//11 9//11
f 114//12 14//12 116//12
f 7//13 18//13 3//13
f 5//14 17//14 1//14
f 5//15 20//15 19//15
f 1//1 18//1 4//1
f 21//16 81//16 36//16
f 97//17 35//17 50//17
f 29//18 43//18 44//18
f 22//19 36//19 37//19
f 29//20 45//20 30//20
f 23//21 37//21 38//21
f 30//22 46//22 31//22
f 23//23 39//23 24//23
f 31//24 47//24 32//24
f 24//25 40//25 25//25
f 33//26 47//26 48//26
f 25//27 41//27 26//27
f 33//28 49//28 34//28
f 27//29 41//29 42//29
f 35//30 49//30 50//30
f 27//31 43//31 28//31
f 41//32 57//32 42//32
f 50//33 64//33 65//33
f 42//34 58//34 43//34
f 36//35 81//35 51//35
f 97//36 50//36 65//36
f 44//37 58//37 59//37
f 36//38 52//38 37//38
f 44//39 60//39 45//39
f 38//40 52//40 53//40
f 45//41 61//41 46//41
f 38//42 54//42 39//42
f 47//43 61//43 62//43
f 39//44 55//44 40//44
f 48//45 62//45 63//45
f 41//46 55//46 56//46
f 48//47 64//47 49//47
f 60//48 76//48 61//48
f 53//49 69//49 54//49
f 61//50 77//50 62//50
f 55//51 69//51 70//51
f 63//52 77//52 78//52
f 55//53 71//53 56//53
f 63//54 79//54 64//54
f 57//55 71//55 72//55
f 65//56 79//56 80//56
f 57//57 73//57 58//57
f 51//58 81//58 66//58
f 97//59 65//59 80//59
f 58//60 74//60 59//60
f 51//61 67//61 52//61
f 59//62 75//62 60//62
f 53//63 67//63 68//63
f 79//64 96//64 80//64
f 72//65 89//65 73//65
f 66//66 81//66 82//66
f 97//67 80//67 96//67
f 73//68 90//68 74//68
f 66//69 83//69 67//69
f 75//70 90//70 91//70
f 68//71 83//71 84//71
f 75//72 92//72 76//72
f 68//73 85//73 69//73
f 76//74 93//74 77//74
f 69//75 86//75 70//75
f 78//76 93//76 94//76
f 71//77 86//77 87//77
f 78//78 95//78 79//78
f 71//79 88//79 72//79
f 92//80 109//80 93//80
f 85//81 102//81 86//81
f 94//82 109//82 110//82
f 87//83 102//83 103//83
f 95//84 110//84 111//84
f 87//85 104//85 88//85
f 96//86 111//86 112//86
f 89//87 104//87 105//87
f 82//88 81//88 98//88
f 97//89 96//89 112//89
f 89//90 106//90 90//90
f 83//91 98//91 99//91
f 91//92 106//92 107//92
f 84//93 99//93 100//93
f 91//94 108//94 92//94
f 84//95 101//95 85//95
f 98//96 81//96 21//96
f 97//97 112//97 35//97
f 105//98 29//98 106//98
f 98//99 22//99 99//99
f 107//100 29//100 30//100
f 99//101 23//101 100//101
f 107//102 31//102 108//102
f 100//103 24//103 101//103
f 108//104 32//104 109//104
f 102//105 24//105 25//105
f 109//106 33//106 110//106
f 103//107 25//107 26//107
f 111//108 33//108 34//108
f 103//109 27//109 104//109
f 111//110 35//110 112//110
f 105//111 27//111 28//111
f 12//112 116//112 16//112
f 15//113 113//113 11//113
f 15//114 116//114 115//114
f 10//115 113//115 9//115
f 2//1 3//1 18//1
f 19//2 20//2 7//2
f 17//116 19//116 6//116
f 6//4 7//4 3//4
f 18//117 20//117 8//117
f 1//6 4//6 8//6
f 114//118 12//118 11//118
f 12//8 16//8 15//8
f 115//9 116//9 14//9
f 14//10 10//10 9//10
f 113//11 115//11 13//11
f 114//12 10//12 14//12
f 7//119 20//119 18//119
f 5//120 19//120 17//120
f 5//15 8//15 20//15
f 1//1 17//1 18//1
f 29//18 28//18 43//18
f 22//19 21//19 36//19
f 29//20 44//20 45//20
f 23//21 22//21 37//21
f 30//22 45//22 46//22
f 23//23 38//23 39//23
f 31//24 46//24 47//24
f 24//25 39//25 40//25
f 33//26 32//26 47//26
f 25//27 40//27 41//27
f 33//28 48//28 49//28
f 27//29 26//29 41//29
f 35//30 34//30 49//30
f 27//31 42//31 43//31
f 41//32 56//32 57//32
f 50//33 49//33 64//33
f 42//34 57//34 58//34
f 44//37 43//37 58//37
f 36//38 51//38 52//38
f 44//39 59//39 60//39
f 38//40 37//40 52//40
f 45//41 60//41 61//41
f 38//42 53//42 54//42
f 47//43 46//43 61//43
f 39//44 54//44 55//44
f 48//45 47//45 62//45
f 41//46 40//46 55//46
f 48//47 63//47 64//47
f 60//48 75//48 76//48
f 53//49 68//49 69//49
f 61//50 76//50 77//50
f 55//51 54//51 69//51
f 63//52 62//52 77//52
f 55//53 70//53 71//53
f 63//54 78//54 79//54
f 57//55 56//55 71//55
f 65//56 64//56 79//56
f 57//121 72//121 73//121
f 58//60 73//60 74//60
f 51//61 66//61 67//61
f 59//62 74//62 75//62
f 53//63 52//63 67//63
f 79//64 95//64 96//64
f 72//65 88//65 89//65
f 73//122 89//122 90//122
f 66//69 82//69 83//69
f 75//70 74//70 90//70
f 68//71 67//71 83//71
f 75//72 91//72 92//72
f 68//73 84//73 85//73
f 76//74 92//74 93//74
f 69//75 85//75 86//75
f 78//76 77//76 93//76
f 71//77 70//77 86//77
f 78//78 94//78 95//78
f 71//79 87//79 88//79
f 92//80 108//80 109//80
f 85//81 101//81 102//81
f 94//82 93//82 109//82
f 87//83 86//83 102//83
f 95//84 94//84 110//84
f 87//85 103//85 104//85
f 96//86 95//86 111//86
f 89//87 88//87 104//87
f 89//90 105//90 106//90
f 83//91 82//91 98//91
f 91//92 90//92 106//92
f 84//93 83//93 99//93
f 91//94 107//94 108//94
f 84//95 100//95 101//95
f 105//123 28//123 29//123
f 98//99 21//99 22//99
f 107//100 106//100 29//100
f 99//101 22//101 23//101
f 107//102 30//102 31//102
f 100//103 23//103 24//103
f 108//104 31//104 32//104
f 102//105 101//105 24//105
f 109//106 32//106 33//106
f 103//107 102//107 25//107
f 111//108 110//108 33//108
f 103//109 26//109 27//109
f 111//110 34//110 35//110
f 105//124 104//124 27//124
f 12//112 114//112 116//112
f 15//113 115//113 113//113
f 15//125 16//125 116//125
f 10//115 114//115 113//115
